<?xml version="1.0" encoding="UTF-8"?>
<svg version="1.1" xmlns="http://www.w3.org/2000/svg" width="1569" height="1586">
<path d="M0 0 C13.53 0 27.06 0 41 0 C40.87842529 3.71290283 40.75685059 7.42580566 40.6315918 11.2512207 C40.24609658 23.70685646 40.02761091 36.16113713 39.88859844 48.62176228 C39.80066321 56.1568831 39.66029878 63.68332216 39.38500977 71.21411133 C37.9842657 110.50861553 40.75124823 137.7002775 67.51950073 168.85397339 C72.14198825 174.2618523 75.90883923 180.06472731 79.68359375 186.0859375 C80.84308615 187.8580392 82.00632017 189.62770012 83.17382812 191.39453125 C84.26185567 193.05459777 85.3497468 194.7147537 86.4375 196.375 C88.7267716 199.8626976 91.01751325 203.34942796 93.30859375 206.8359375 C93.86091171 207.67691986 94.41322968 208.51790222 94.98228455 209.3843689 C98.96305896 215.43980105 102.9750297 221.47387238 107 227.5 C111.58949419 234.37132467 116.15554485 241.25720995 120.69140625 248.1640625 C121.24610092 249.00856964 121.80079559 249.85307678 122.37229919 250.72317505 C123.51359924 252.46090473 124.6548801 254.19864701 125.79614258 255.93640137 C137.96839658 274.46396836 150.28287178 292.89057561 162.72094727 311.24072266 C163.59989403 312.5387532 163.59989403 312.5387532 164.49659729 313.86300659 C165.58055661 315.46331262 166.66576146 317.06277611 167.75254822 318.66116333 C168.24026199 319.38109467 168.72797577 320.101026 169.23046875 320.84277344 C169.64707764 321.45618591 170.06368652 322.06959839 170.49291992 322.70159912 C170.99025635 323.46007141 171.48759277 324.2185437 172 325 C172.83965742 325.98395217 173.67931484 326.96790434 174.54441643 327.98167324 C178.81409631 334.91329843 177.77550755 343.72102321 177.79641724 351.59162903 C177.81937353 353.51481872 177.84441793 355.43798443 177.87136734 357.36112231 C177.93880155 362.64152649 177.97489689 367.92174755 178.00544047 373.2024771 C178.03571647 377.73406652 178.08444141 382.26538159 178.13338961 386.79680208 C178.29468884 401.73470132 178.39744259 416.67275346 178.48483306 431.61124542 C178.50774663 435.5083274 178.53165106 439.40540218 178.55580664 443.30247664 C178.70505528 467.55240069 178.83376053 491.802348 178.91320992 516.05260181 C178.93187643 521.66893947 178.95089208 527.28527589 178.97021484 532.90161133 C178.97259242 533.59929135 178.97497001 534.29697137 178.97741964 535.01579321 C179.05497359 557.5558995 179.23932702 580.09342835 179.48528478 602.63228057 C179.7454828 626.5202461 179.89680208 650.40660913 179.93191803 674.29600257 C179.95384785 687.29440967 180.02311446 700.28859907 180.21899796 713.28565407 C180.38590883 724.37427049 180.45028808 735.45789332 180.38910593 746.54768781 C180.36098012 752.18937903 180.37612598 757.82058589 180.52425003 763.46063614 C181.36410077 797.2310708 172.26740593 817.39240833 151.32486129 843.74673307 C147.13172178 849.04177539 143.45355765 854.60482968 139.84375 860.3125 C138.7700115 861.95536901 137.69421899 863.59689983 136.61523438 865.23632812 C136.10822998 866.01177979 135.60122559 866.78723145 135.07885742 867.58618164 C125.01198246 882.97680987 114.80968856 898.27115743 104.5 913.5 C92.65485475 930.99812237 80.9856097 948.60649196 69.38052368 966.26455688 C68.80248993 967.14404999 68.22445618 968.02354309 67.62890625 968.9296875 C66.77744522 970.22536148 66.77744522 970.22536148 65.90878296 971.54721069 C59.98827022 980.55008158 54.01166383 989.51524754 48.01098633 998.46484375 C47.35251709 999.44839844 46.69404785 1000.43195312 46.015625 1001.4453125 C45.45133789 1002.28594238 44.88705078 1003.12657227 44.30566406 1003.99267578 C42.15429091 1007.30019075 41.86852318 1009.20301756 41.84178162 1013.1378479 C41.8319928 1014.2260231 41.82220398 1015.3141983 41.81211853 1016.43534851 C41.80636307 1017.63440323 41.8006076 1018.83345795 41.79467773 1020.06884766 C41.78477814 1021.32735031 41.77487854 1022.58585297 41.76467896 1023.88249207 C41.73760233 1027.33885454 41.71660774 1030.79523072 41.69667697 1034.2516408 C41.67483439 1037.86182696 41.64743727 1041.47197078 41.62062073 1045.0821228 C41.57067042 1051.92085634 41.52574029 1058.75961334 41.48259836 1065.59839284 C41.43324594 1073.38308322 41.37832043 1081.16773111 41.32291877 1088.95238042 C41.20906283 1104.9682159 41.10296746 1120.98409026 41 1137 C27.47 1137 13.94 1137 0 1137 C0.18236206 1131.47608521 0.18236206 1131.47608521 0.3684082 1125.84057617 C0.75395242 1113.48473573 0.9724025 1101.13026076 1.11140156 1088.76938915 C1.19932677 1081.29476613 1.33965235 1073.82889715 1.61499023 1066.35864258 C3.01744392 1027.34268558 -0.023288 999.99408922 -26.56802368 969.08291626 C-30.9680414 963.93787624 -34.57790482 958.43253882 -38.15625 952.6875 C-39.22843896 951.04361929 -40.30445936 949.40222957 -41.38476562 947.76367188 C-41.89177002 946.98822021 -42.39877441 946.21276855 -42.92114258 945.41381836 C-52.98801798 930.02318947 -63.19034442 914.72886539 -73.5 899.5 C-84.59333309 883.11220263 -95.5480867 866.6382974 -106.40625 850.09375 C-107.17896048 848.92177819 -107.17896048 848.92177819 -107.96728128 847.72613019 C-109.08312236 846.02052209 -110.18769001 844.30744421 -111.27689034 842.58470136 C-114.57294214 837.43203098 -118.0547918 832.66051391 -121.98967648 827.97485638 C-139.03056369 807.03674106 -139.97382151 787.58563639 -139.74642479 761.32862222 C-139.71932459 755.65682897 -139.80820835 749.98654105 -139.88072205 744.31530762 C-140.00348618 733.24317824 -140.01868984 722.17351321 -139.9916944 711.10083298 C-139.9710038 702.08372505 -139.98648046 693.06735037 -140.02676201 684.05031395 C-140.03242518 682.75959859 -140.03808834 681.46888323 -140.04392312 680.13905528 C-140.05547027 677.51560062 -140.0670459 674.89214609 -140.07864969 672.26869168 C-140.15265835 654.68958887 -140.18870931 637.11087264 -140.1451807 619.53165913 C-140.14349172 618.84659682 -140.14180274 618.16153451 -140.14006259 617.45571273 C-140.12613294 611.89553125 -140.11118815 606.33535241 -140.09615296 600.77517383 C-140.03853429 579.12488141 -140.11051624 557.47847594 -140.28637695 535.82885742 C-140.48457692 511.39873084 -140.58378769 486.97121558 -140.54197305 462.5402171 C-140.52174268 449.64437003 -140.54223737 436.75195673 -140.67747688 423.85671425 C-140.791458 412.87234602 -140.80015842 401.89360188 -140.68180389 390.90919165 C-140.62431847 385.32448346 -140.60931751 379.74992215 -140.72612381 374.16590691 C-141.38004939 340.61229686 -132.10011849 320.5078225 -111.35226619 294.30581224 C-107.01580273 288.8079577 -103.21247121 283.03047579 -99.45703125 277.125 C-98.32590186 275.39885881 -97.19280866 273.67400074 -96.05664062 271.95117188 C-95.52659424 271.14220459 -94.99654785 270.3332373 -94.45043945 269.49975586 C-91.47904024 264.96492854 -88.49852889 260.43608781 -85.51953125 255.90625 C-84.94494171 255.03206421 -84.37035217 254.15787842 -83.77835083 253.25720215 C-78.53618522 245.2851739 -73.24349812 237.34796593 -67.93798828 229.41796875 C-63.42430669 222.66136793 -58.94337607 215.88400637 -54.48046875 209.09375 C-37.87986734 183.83982717 -21.10186449 158.71422148 -4.14631653 133.6971283 C-1.64667756 129.99639825 -0.74752703 128.20088636 -0.7215271 123.74189758 C-0.71036362 122.65234772 -0.69920013 121.56279785 -0.68769836 120.44023132 C-0.68445808 118.64704216 -0.68445808 118.64704216 -0.68115234 116.81762695 C-0.67110672 115.55897827 -0.6610611 114.30032959 -0.65071106 113.00354004 C-0.62338225 109.55136142 -0.6082532 106.09922368 -0.59528303 102.64696527 C-0.57966504 99.03943197 -0.5528706 95.4319823 -0.5272522 91.82450867 C-0.48044076 84.9928999 -0.44370814 78.16127544 -0.41057932 71.32958812 C-0.37237461 63.55210585 -0.32296015 55.77470752 -0.27259517 47.99729598 C-0.16924012 31.99825181 -0.08147129 15.99917284 0 0 Z " fill="#007835" transform="translate(1130,0)"/>
<path d="M0 0 C13.2 0 26.4 0 40 0 C39.87842529 3.61678711 39.75685059 7.23357422 39.6315918 10.95996094 C39.24578721 23.10444987 39.02752773 35.24701906 38.88859844 47.39649582 C38.80072699 54.74225816 38.66059767 62.07910195 38.38500977 69.42041016 C36.96074311 108.30797743 40.46997312 135.64952064 66.51792908 166.74212646 C71.56284522 172.79793552 75.76337236 179.36749854 80 186 C81.10984559 187.68819633 82.22191969 189.37493174 83.3371582 191.05957031 C84.32542455 192.56549803 85.31329612 194.0716849 86.30078125 195.578125 C87.43862317 197.31066439 88.57665208 199.04308098 89.71484375 200.77539062 C90.29991699 201.66589111 90.88499023 202.5563916 91.48779297 203.47387695 C102.64064115 220.44190433 113.90472604 237.32893896 125.28915405 254.1423645 C136.05886297 270.0532249 146.66518777 286.06766861 157.19726562 302.13671875 C157.77185516 303.0121785 158.3464447 303.88763824 158.93844604 304.78962708 C159.98474559 306.38418897 161.02964822 307.97966922 162.07254028 309.57646179 C162.5598764 310.31910782 163.04721252 311.06175385 163.54931641 311.8269043 C164.03320879 312.58036031 164.51710116 313.33381631 165.01565695 314.11010432 C166.5105561 316.28719895 168.02328731 318.28302264 169.68986559 320.31932282 C178.09271579 330.93063863 179.61827079 339.21739566 179.51794434 352.50897217 C179.54356426 354.43426934 179.57387843 356.35950869 179.60842943 358.2846663 C179.68873148 363.53412034 179.70137756 368.78181319 179.7018342 374.03180003 C179.71405552 379.71105833 179.7890574 385.38956398 179.85501099 391.06840515 C179.98675794 403.4728708 180.03687484 415.87685092 180.07034874 428.28191662 C180.09173619 436.04884576 180.13057084 443.81562632 180.17286682 451.58246613 C180.28769701 473.14383378 180.38462961 494.70501328 180.40599823 516.2666893 C180.40670339 516.95535061 180.40740856 517.64401193 180.40813509 518.35354176 C180.41098343 521.14376631 180.41375912 523.93399092 180.41652506 526.72421554 C180.41861216 528.82379346 180.42073025 530.92337134 180.42285156 533.02294922 C180.42353183 533.71674055 180.42421209 534.41053188 180.42491297 535.12534719 C180.44773279 557.55665327 180.59239191 579.98478308 180.81248324 602.41496661 C181.04552288 626.20900776 181.17111482 650.00106378 181.17594004 673.79630971 C181.18099468 686.73573378 181.23070326 699.6712572 181.40238953 712.60964203 C181.54817985 723.64264068 181.59020071 734.67039067 181.50618511 745.70412222 C181.46633152 751.31544793 181.46930967 756.91641174 181.60499954 762.52647209 C182.36921774 796.12657899 173.21436746 816.41799472 152.83110142 842.91577578 C146.91345708 850.66166321 141.59035929 858.81971469 136.20492262 866.939491 C133.2459099 871.38343385 130.24591018 875.79963815 127.25 880.21875 C119.29735173 891.99537283 111.49491748 903.869735 103.69555664 915.74816895 C92.94820201 932.11077988 82.06954254 948.38236094 71.03327942 964.55175781 C69.90882531 966.22246876 68.8042573 967.90670452 67.71806335 969.60253906 C64.73383758 974.21478355 61.67149595 978.45197401 57.96039486 982.51433945 C35.56656481 1007.31878122 38.27665309 1037.49086759 39.04204571 1068.86840034 C39.21942706 1076.31469245 39.27179177 1083.76049139 39.31644666 1091.20857334 C39.41064578 1106.47642081 39.66944901 1121.73516184 40 1137 C26.8 1137 13.6 1137 0 1137 C0.18236206 1131.48394043 0.18236206 1131.48394043 0.3684082 1125.85644531 C0.75410259 1113.51258912 0.97244507 1101.17009816 1.11140156 1088.82120132 C1.19929406 1081.35444533 1.33951218 1073.89645988 1.61499023 1066.43408203 C3.02432969 1027.28869528 -0.00714464 1000.08238461 -26.19047546 968.73350525 C-32.20742401 961.43305721 -37.23711702 953.43352981 -42.37120628 945.5019455 C-45.19761033 941.16038351 -48.08857999 936.86196273 -50.97265625 932.55859375 C-57.56644777 922.67573806 -64.09739586 912.7520172 -70.62258911 902.8237915 C-82.60636527 884.59110609 -94.69583507 866.43334483 -106.96716017 848.39260685 C-108.08334778 846.73720928 -109.18799471 845.07392643 -110.27691418 843.40046585 C-113.59596301 838.34365846 -117.09433692 833.63197326 -120.98967648 829.00232124 C-138.04722737 808.04481866 -138.97356854 788.53499174 -138.74642479 762.25873828 C-138.71932545 756.57670202 -138.8082077 750.8961686 -138.88072205 745.21469116 C-139.00349055 734.12217452 -139.01868894 723.03211765 -138.9916944 711.93905114 C-138.97100337 702.90478985 -138.98648123 693.87126039 -139.02676201 684.83707047 C-139.03242518 683.54386847 -139.03808834 682.25066647 -139.04392312 680.91827653 C-139.05547029 678.2897506 -139.06704592 675.6612248 -139.07864969 673.03269912 C-139.15265987 655.41916561 -139.18870825 637.80597076 -139.1451807 620.19231987 C-139.14349172 619.50589992 -139.14180274 618.81947997 -139.14006259 618.11225941 C-139.12613298 612.5410797 -139.11118816 606.96990261 -139.09615296 601.39872579 C-139.03854092 579.70814718 -139.11049882 558.0214488 -139.28637695 536.33154297 C-139.48460521 511.85489602 -139.58378131 487.38085594 -139.54197305 462.90333855 C-139.52174639 449.9834287 -139.54220378 437.0669463 -139.67747688 424.14764023 C-139.79149353 413.14207759 -139.80011876 402.14212832 -139.68180389 391.13652323 C-139.62434222 385.54157191 -139.60925013 379.95674592 -139.72612381 374.36248779 C-140.38293662 340.61300722 -130.92906439 320.04523807 -110.38685977 293.44350266 C-105.93456931 287.66604008 -101.96238357 281.62008068 -98 275.5 C-96.60671943 273.40185607 -95.20396376 271.31030278 -93.80078125 269.21875 C-90.00166958 263.52728724 -86.23888985 257.81214226 -82.48046875 252.09375 C-69.67177024 232.60824476 -56.79333745 213.17774164 -43.71871948 193.8694458 C-32.64955269 177.51788454 -21.75639672 161.05403141 -10.92382812 144.54492188 C-10.03482819 143.19105881 -10.03482819 143.19105881 -9.12786865 141.80984497 C-8.01556643 140.11536589 -6.90438698 138.42014911 -5.79449463 136.72409058 C-5.3064032 135.98031158 -4.81831177 135.23653259 -4.31542969 134.47021484 C-3.88993835 133.82047699 -3.46444702 133.17073914 -3.02606201 132.50131226 C-2 131 -2 131 -1 130 C-0.89165136 128.31747421 -0.85314043 126.6304153 -0.84178162 124.94444275 C-0.8319928 123.84922806 -0.82220398 122.75401337 -0.81211853 121.62561035 C-0.80636307 120.41360962 -0.8006076 119.20160889 -0.79467773 117.95288086 C-0.78477814 116.68477066 -0.77487854 115.41666046 -0.76467896 114.11012268 C-0.73756697 110.62271019 -0.71659162 107.13528407 -0.69667697 103.64782405 C-0.67485609 100.00693558 -0.6474484 96.36608939 -0.62062073 92.72523499 C-0.57064095 85.82626095 -0.52572181 78.92726352 -0.48259836 72.0282436 C-0.43327105 64.17586312 -0.37833627 56.32352506 -0.32291877 48.47118556 C-0.20901763 32.31416134 -0.10293675 16.15709836 0 0 Z " fill="#FBC330" transform="translate(425,0)"/>
<path d="M0 0 C13.2 0 26.4 0 40 0 C39.87842529 3.68260986 39.75685059 7.36521973 39.6315918 11.15942383 C39.24604758 23.51526427 39.0275975 35.86973924 38.88859844 48.23061085 C38.80067323 55.70523387 38.66034765 63.17110285 38.38500977 70.64135742 C36.98255608 109.65731442 40.023288 137.00591078 66.56802368 167.91708374 C70.9680414 173.06212376 74.57790482 178.56746118 78.15625 184.3125 C79.22843896 185.95638071 80.30445936 187.59777043 81.38476562 189.23632812 C81.89177002 190.01177979 82.39877441 190.78723145 82.92114258 191.58618164 C92.98801798 206.97681053 103.19034442 222.27113461 113.5 237.5 C124.59333309 253.88779737 135.5480867 270.3617026 146.40625 286.90625 C146.92139032 287.68756582 147.43653065 288.46888163 147.96728128 289.27387369 C149.08311754 290.97947195 150.18768477 292.69253708 151.27689034 294.41526377 C154.57302002 299.5680017 158.05495695 304.33977818 161.98967648 309.02570152 C179.02666598 329.96077354 179.97387106 349.40374641 179.74642479 375.65671873 C179.71932429 381.32648632 179.80820894 386.99474812 179.88072205 392.66395569 C180.00348787 403.73241026 180.01868935 414.79839969 179.9916944 425.86740531 C179.97100298 434.88212102 179.9864819 443.89610333 180.02676201 452.91074753 C180.03242518 454.20117417 180.03808834 455.49160081 180.04392312 456.82113128 C180.0554703 459.44402021 180.06704593 462.06690901 180.07864969 464.68979768 C180.15265945 482.26546667 180.18870868 499.84074898 180.1451807 517.4165287 C180.14349172 518.10146579 180.14180274 518.78640288 180.14006259 519.49209564 C180.12613299 525.05123171 180.11118817 530.61036513 180.09615296 536.16949829 C180.03854116 557.81308754 180.11049838 579.45278812 180.28637695 601.09570312 C180.48460849 625.51966188 180.58378086 649.94083134 180.54197305 674.3656944 C180.52174682 687.25766151 180.54219978 700.14619372 180.67747688 713.03755569 C180.79149716 724.01933377 180.80011487 734.99548631 180.68180389 745.97730698 C180.62434453 751.56011448 180.6092428 757.13277498 180.72612381 762.71488762 C181.38286055 796.3938433 171.93852085 816.88227404 151.46721256 843.43448901 C146.63038998 849.72873331 142.32269798 856.3483045 138 863 C136.4218072 865.37546643 134.83416439 867.7443912 133.24609375 870.11328125 C129.25446946 876.09395492 125.29720232 882.09694176 121.34765625 888.10546875 C120.46664749 889.4456456 120.46664749 889.4456456 119.56784058 890.81289673 C118.97053131 891.72155487 118.37322205 892.63021301 117.7578125 893.56640625 C99.13515413 921.89598931 99.13515413 921.89598931 90.11949921 935.18324757 C87.10587123 939.62844692 84.10841626 944.08207632 81.16009521 948.57090759 C75.81102521 956.67240386 70.45564862 964.61953813 64.23238945 972.08139896 C38.71722812 1002.74637023 37.05140695 1031.18012847 38.46583235 1069.17810249 C38.73594084 1076.59723191 38.82965625 1084.0160206 38.91385782 1091.43921423 C39.08990147 1106.63417672 39.49370334 1121.81177122 40 1137 C26.8 1137 13.6 1137 0 1137 C0.12157471 1133.35291992 0.24314941 1129.70583984 0.3684082 1125.94824219 C0.75416071 1113.70395939 0.97245809 1101.46158117 1.11140156 1089.21235275 C1.19928362 1081.80609366 1.33946619 1074.4086794 1.61499023 1067.00683594 C3.02384282 1028.19650486 -0.24489615 1000.84331097 -26.15029907 969.78172302 C-32.30304985 962.31178588 -37.49574644 954.15004797 -42.80243492 946.07053375 C-45.74601412 941.61322617 -48.75148962 937.19779684 -51.75 932.77734375 C-62.75689964 916.47373608 -73.53653274 900.01935386 -84.33544922 883.57763672 C-89.96462313 875.00788051 -95.60439223 866.44510447 -101.24560547 857.88327026 C-102.9666727 855.27047768 -104.68655843 852.65691103 -106.40625 850.04321289 C-106.92139032 849.26418566 -107.43653065 848.48515844 -107.96728128 847.68252432 C-109.08288214 845.98265343 -110.18742927 844.27543656 -111.27689034 842.5586952 C-114.5762938 837.41942167 -118.06070077 832.65590964 -121.98967648 827.9777317 C-139.02638249 807.04197984 -139.97387103 787.59625032 -139.74642479 761.34328127 C-139.71932429 755.67351368 -139.80820894 750.00525188 -139.88072205 744.33604431 C-140.00348787 733.26758974 -140.01868935 722.20160031 -139.9916944 711.13259469 C-139.97100298 702.11787898 -139.9864819 693.10389667 -140.02676201 684.08925247 C-140.03242518 682.79882583 -140.03808834 681.50839919 -140.04392312 680.17886872 C-140.0554703 677.55597979 -140.06704593 674.93309099 -140.07864969 672.31020232 C-140.15265945 654.73453333 -140.18870868 637.15925102 -140.1451807 619.5834713 C-140.14349172 618.89853421 -140.14180274 618.21359712 -140.14006259 617.50790436 C-140.12613299 611.94876829 -140.11118817 606.38963487 -140.09615296 600.83050171 C-140.03854116 579.18691246 -140.11049838 557.54721188 -140.28637695 535.90429688 C-140.48460849 511.48033812 -140.58378086 487.05916866 -140.54197305 462.6343056 C-140.52174682 449.74233849 -140.54219978 436.85380628 -140.67747688 423.96244431 C-140.79149716 412.98066623 -140.80011487 402.00451369 -140.68180389 391.02269302 C-140.62434453 385.43988552 -140.6092428 379.86722502 -140.72612381 374.28511238 C-141.37847144 340.79274253 -132.12109848 320.5087354 -111.82880008 294.08780408 C-105.91642157 286.33742705 -100.59155296 278.17993535 -95.20506645 270.06028526 C-92.24572229 265.61660788 -89.24583623 261.20036784 -86.25 256.78125 C-78.91064582 245.91281938 -71.69839144 234.96209998 -64.5 224 C-53.11373405 206.66173911 -41.61948987 189.39895253 -29.93795776 172.25784302 C-28.81341297 170.58601906 -27.70866268 168.90073886 -26.62234497 167.2038269 C-23.34315262 162.14405298 -19.89694637 157.74814258 -15.74169922 153.37158203 C5.32599324 129.98216649 1.54626711 98.86746488 0.88592762 69.38488877 C0.72014424 61.80312901 0.67293436 54.22185965 0.63322973 46.63855863 C0.54928101 31.0888365 0.30857825 15.54713381 0 0 Z " fill="#37B3E3" transform="translate(778,0)"/>
<path d="M0 0 C0.72053558 0.0015509 1.44107117 0.00310181 2.18344116 0.00469971 C16.23286106 0.03889281 30.28184394 0.22066795 44.32937622 0.44439697 C46.65410671 0.48085376 48.97887628 0.51491472 51.30368042 0.54632568 C63.10385345 0.71106046 74.84750316 1.04872259 86.609375 2.0546875 C87.52640701 2.13286713 88.44343903 2.21104675 89.38825989 2.29159546 C113.81628813 4.57515836 136.43871693 12.93308282 155.0625 29.125 C156.30966797 30.17300781 156.30966797 30.17300781 157.58203125 31.2421875 C179.55703129 50.21292486 193.82928915 79.12427581 196.0625 108.125 C197.46034051 135.89580728 192.77822204 166.30076359 173.96484375 188.0390625 C173.33707031 188.72742187 172.70929688 189.41578125 172.0625 190.125 C171.56878906 190.71023438 171.07507812 191.29546875 170.56640625 191.8984375 C164.55179237 198.55356871 156.48333821 203.19856119 149.0625 208.125 C149.72145264 208.360979 150.38040527 208.59695801 151.05932617 208.84008789 C182.01333064 219.99412408 203.80879072 233.67936548 218.75 264.25 C224.85034968 277.24998441 228.17255704 291.8749322 228.30078125 306.1953125 C228.308853 307.07162323 228.31692474 307.94793396 228.32524109 308.85079956 C228.33903879 310.70829319 228.34978013 312.56581171 228.35766602 314.42333984 C228.36906878 316.28279297 228.3893293 318.14221652 228.41918945 320.00146484 C228.90016335 350.0368071 221.12515364 378.19625299 201.0625 401.125 C200.47339844 401.8571875 199.88429688 402.589375 199.27734375 403.34375 C177.87455189 429.15433551 144.3462494 441.23095362 112.0625 445.125 C62.60852886 448.92915163 12.42630679 447.125 -36.9375 447.125 C-36.9375 299.945 -36.9375 152.765 -36.9375 1.125 C-12.2922129 -0.0485851 -12.2922129 -0.0485851 0 0 Z M28.0625 63.125 C28.03907965 78.71146015 28.02147611 94.29791551 28.01068783 109.88438892 C28.00554422 117.12239484 27.99853861 124.36038979 27.98706055 131.59838867 C27.97705436 137.91127219 27.97063251 144.22414775 27.96841151 150.53703898 C27.96711443 153.87579509 27.96355787 157.21451056 27.95676994 160.55326271 C27.94947395 164.29178826 27.94851266 168.03026726 27.94897461 171.76879883 C27.94537933 172.86069016 27.94178406 173.95258148 27.93807983 175.07756042 C27.94704084 181.81289156 28.33323623 188.4291163 29.0625 195.125 C74.17600615 196.41546655 74.17600615 196.41546655 112.78515625 175.55859375 C120.43908314 167.37952608 125.23699083 158.62429464 129.0625 148.125 C129.57490234 146.74634766 129.57490234 146.74634766 130.09765625 145.33984375 C135.58430579 127.60393012 132.67741492 107.7407871 124.2109375 91.59375 C116.75912963 78.94053778 105.21496372 69.93185861 91.0625 66.125 C76.83671067 63.12513296 62.79427849 62.7416005 48.3125 62.9375 C46.33204166 62.95260436 44.35157191 62.9662824 42.37109375 62.97851562 C37.60127136 63.01099615 32.83201883 63.06244578 28.0625 63.125 Z M27.0625 252.125 C27.0625 297.335 27.0625 342.545 27.0625 389.125 C90.50690821 392.8203986 90.50690821 392.8203986 147.84765625 367.43359375 C154.64033692 360.35339221 158.88579181 353.44567127 162.0625 344.125 C162.38347656 343.18527344 162.70445312 342.24554687 163.03515625 341.27734375 C168.35454969 322.49864784 166.10584241 301.18885119 156.953125 284.0390625 C146.42273848 267.80834278 130.74059155 257.56347646 112.0625 253.125 C109.30722942 252.66075643 106.54689737 252.32549148 103.76953125 252.0234375 C102.98858597 251.93829391 102.20764069 251.85315033 101.4030304 251.76542664 C93.61845185 250.98158869 85.88044856 250.8560138 78.06225586 250.91918945 C75.78812987 250.93719805 73.51442381 250.93969917 71.24023438 250.93945312 C56.4902447 250.99502027 41.82153842 251.61606764 27.0625 252.125 Z " fill="#101111" transform="translate(1340.9375,1133.875)"/>
<path d="M0 0 C21.45 0 42.9 0 65 0 C65.01981934 8.16935303 65.03963867 16.33870605 65.06005859 24.75561523 C65.12505748 50.9842059 65.19960212 77.21276127 65.28005161 103.44130882 C65.2925684 107.52491855 65.30500149 111.60852853 65.31738281 115.69213867 C65.31984881 116.50500936 65.3223148 117.31788005 65.32485552 118.15538318 C65.36442867 131.26553178 65.3972438 144.37568885 65.42749982 157.48586189 C65.45876744 170.96818569 65.49744037 184.45047406 65.54279006 197.93275791 C65.57047806 206.23191568 65.59259485 214.53104796 65.60726251 222.83023912 C65.61791874 228.54451805 65.63585749 234.2587472 65.65916704 239.97298836 C65.67235106 243.25500979 65.68157619 246.53695125 65.68421364 249.81900024 C65.72159015 289.31248818 66.38787144 333.37246431 95.45703125 363.55078125 C102.30484257 370.1579667 109.60283767 374.69549133 118 379 C118.9384375 379.48339844 119.876875 379.96679688 120.84375 380.46484375 C144.73811762 392.02550103 174.21829308 393.6157466 199.34057617 384.99926758 C219.70643415 377.49862938 237.37049707 363.79682384 247 344 C259.97756058 314.79318152 260.29418735 283.00237193 260.31884766 251.57226562 C260.32709617 248.81013219 260.33825936 246.04801221 260.34928894 243.28588867 C260.37132763 237.39313764 260.38647974 231.50040326 260.39665604 225.60762024 C260.41137881 217.08814805 260.43695135 208.5687341 260.46498732 200.04929656 C260.51021166 186.21972891 260.54692579 172.39015276 260.578125 158.56054688 C260.60841125 145.14386507 260.64280691 131.72720394 260.68261719 118.31054688 C260.68507874 117.48049348 260.68754028 116.65044008 260.69007643 115.79523355 C260.70245297 111.63018862 260.71490913 107.46514394 260.72740483 103.30009937 C260.83060697 68.86675757 260.91833189 34.43340128 261 0 C283.44 0 305.88 0 329 0 C329.04420275 36.62911614 329.08108778 73.25820685 329.10213066 109.88734209 C329.10463167 114.22502498 329.10722035 118.56270782 329.10986328 122.90039062 C329.11065021 124.19556387 329.11065021 124.19556387 329.11145304 125.51690222 C329.12012364 139.4444107 329.1358749 153.37190244 329.15430559 167.29940103 C329.17309823 181.6213027 329.18413637 195.94319569 329.18817699 210.26510918 C329.19090277 219.08174181 329.19946856 227.89832711 329.21583293 236.71494515 C329.22651582 242.78475968 329.22957549 248.85455022 329.22700275 254.92437343 C329.22573876 258.41108554 329.22748579 261.89771575 329.23841095 265.38441277 C329.36142431 311.54279088 325.68092884 361.11841351 293 397 C292.41621582 397.64275879 291.83243164 398.28551758 291.23095703 398.94775391 C269.54603751 422.44302969 242.30620745 437.08070511 211.75 445.8125 C211.11513672 445.99530518 210.48027344 446.17811035 209.82617188 446.36645508 C207.56156339 446.97449234 205.29030681 447.49631734 203 448 C201.83791016 448.25894043 200.67582031 448.51788086 199.47851562 448.78466797 C187.3428795 451.30115024 175.36021814 451.55612842 163 451.5 C161.9633017 451.49823761 160.92660339 451.49647522 159.85848999 451.49465942 C144.06566365 451.43480292 129.20039141 450.65748545 114 446 C113.12005371 445.73767578 112.24010742 445.47535156 111.33349609 445.20507812 C94.01808659 439.91434666 77.81646336 432.412522 63 422 C61.95714844 421.27554687 60.91429687 420.55109375 59.83984375 419.8046875 C31.92955592 399.39939652 11.5537548 369.89686819 3.75 336.125 C3.59877686 335.47926025 3.44755371 334.83352051 3.29174805 334.16821289 C-0.45093519 316.54949457 -0.28426226 298.70387673 -0.23213124 280.78703499 C-0.22338774 277.00817548 -0.2264245 273.22932151 -0.22793579 269.45045471 C-0.22897784 262.92405923 -0.22277299 256.39770414 -0.21146011 249.87131882 C-0.19511494 240.43559578 -0.18998795 230.99989202 -0.18748413 221.56415637 C-0.18312107 206.25044217 -0.16984993 190.93674944 -0.15087891 175.62304688 C-0.13248397 160.75879014 -0.11834521 145.89453927 -0.10986328 131.03027344 C-0.10933783 130.11202083 -0.10881239 129.19376822 -0.10827102 128.24768977 C-0.10566069 123.64048321 -0.10313334 119.0332766 -0.10064721 114.42606997 C-0.07995803 76.28402758 -0.04311182 38.14202494 0 0 Z " fill="#0F1111" transform="translate(0,1135)"/>
<path d="M0 0 C3.33859345 3.07943573 4.83223915 6.67260577 6.59765625 10.78515625 C6.94372421 11.57611191 7.28979218 12.36706757 7.64634705 13.18199158 C8.79204735 15.80584695 9.92733118 18.43407312 11.0625 21.0625 C11.86864008 22.91493145 12.67528917 24.76714146 13.48242188 26.61914062 C19.80043561 41.13875017 26.02759337 55.69766918 32.24633789 70.26000977 C37.42297387 82.37332253 42.6867577 94.44604276 48 106.5 C54.46766276 121.17294845 60.82924643 135.88777907 67.125 150.63525391 C72.67240121 163.62493685 78.3029406 176.57529102 84 189.5 C90.46766276 204.17294845 96.82924643 218.88777907 103.125 233.63525391 C108.67240121 246.62493685 114.3029406 259.57529102 120 272.5 C126.46766276 287.17294845 132.82924643 301.88777907 139.125 316.63525391 C144.67240121 329.62493685 150.3029406 342.57529102 156 355.5 C162.46323184 370.16289619 168.82139456 384.86726726 175.11190796 399.6050415 C181.66394033 414.95024482 188.33778397 430.23966577 195.07617188 445.50390625 C206 470.26113568 206 470.26113568 206 473 C182.57 473 159.14 473 135 473 C132.03687626 467.07375252 129.20845609 461.38426313 126.79296875 455.265625 C126.51057846 454.56174149 126.22818817 453.85785797 125.9372406 453.13264465 C125.33201027 451.62385362 124.72847469 450.11438179 124.12652588 448.60427856 C122.49214176 444.5066327 120.84253514 440.41514108 119.19140625 436.32421875 C118.84950256 435.47697739 118.50759888 434.62973602 118.15533447 433.75682068 C113.79368411 422.97867565 109.25976544 412.2731661 104.71948242 401.56933594 C99.7123246 389.75006131 94.86160673 377.88392755 90 366 C26.64 365.67 -36.72 365.34 -102 365 C-102.99 367.97 -103.98 370.94 -105 374 C-106.28591089 376.84608482 -107.5972878 379.63584483 -108.9921875 382.42578125 C-109.37430389 383.2024968 -109.75642029 383.97921234 -110.15011597 384.77946472 C-110.96520611 386.43551222 -111.78269575 388.09038057 -112.60241699 389.74414062 C-114.77123063 394.12129544 -116.92077086 398.50788791 -119.0703125 402.89453125 C-119.71202393 404.2030455 -119.71202393 404.2030455 -120.36669922 405.53799438 C-123.9273378 412.81457783 -127.36458521 420.1404234 -130.75 427.5 C-137.65590872 442.41676284 -144.84033499 457.20335897 -152 472 C-175.76 472 -199.52 472 -224 472 C-218.86114573 460.58032385 -213.74947449 449.2343255 -208.25 438 C-203.58590731 428.42047265 -199.02186243 418.80206376 -194.5625 409.125 C-189.67821438 398.53192551 -184.64702128 388.02027014 -179.54226685 377.5322876 C-175.09872442 368.39784286 -170.75165174 359.22587484 -166.5 350 C-161.63728272 339.44814304 -156.62635787 328.97775157 -151.54199219 318.53173828 C-147.09854261 309.39747651 -142.75156583 300.22568842 -138.5 291 C-133.63728272 280.44814304 -128.62635787 269.97775157 -123.54199219 259.53173828 C-119.09854261 250.39747651 -114.75156583 241.22568842 -110.5 232 C-105.94284064 222.11118868 -101.2648858 212.28970482 -96.5 202.5 C-91.1590035 191.5264229 -85.95352395 180.50166959 -80.84375 169.41796875 C-76.70090612 160.45362442 -72.427611 151.55722096 -68.11346436 142.67468262 C-63.83787647 133.8665059 -59.66180854 125.01688249 -55.5625 116.125 C-50.6780217 105.53201162 -45.64702341 95.02027452 -40.54226685 84.5322876 C-36.09872233 75.39783856 -31.75185488 66.22578468 -27.5 57 C-22.78898914 46.7826794 -17.96783631 36.62517978 -13.0625 26.5 C-12.59529541 25.53489502 -12.59529541 25.53489502 -12.11865234 24.55029297 C-8.13956791 16.33643148 -4.10202048 8.15322447 0 0 Z M-2 152 C-7.89914865 163.67113002 -13.59036528 175.4313918 -19.1875 187.25 C-19.60174225 188.12327942 -20.0159845 188.99655884 -20.44277954 189.89630127 C-26.08953405 201.80046043 -31.68863687 213.7251534 -37.2175293 225.68457031 C-41.09947176 234.07815848 -45.02627523 242.44980344 -48.9697876 250.8145752 C-54.1516404 261.80701677 -59.33177134 272.80038319 -64.4675293 283.81445312 C-65.28559213 285.56734361 -66.10661338 287.31885249 -66.92773438 289.0703125 C-67.66926758 290.66359375 -67.66926758 290.66359375 -68.42578125 292.2890625 C-68.85286377 293.20381348 -69.27994629 294.11856445 -69.7199707 295.06103516 C-71.28345771 298.6508228 -72.62517945 302.33381187 -74 306 C-28.13 306 17.74 306 65 306 C63.02025955 300.06077864 61.00986364 294.44717117 58.47265625 288.76953125 C58.13201141 287.99791153 57.79136658 287.22629181 57.44039917 286.43128967 C56.70385231 284.76387106 55.96551562 283.09724212 55.22555542 281.43133545 C53.19665341 276.86288547 51.18158467 272.28832765 49.1640625 267.71484375 C48.74142624 266.75781555 48.31878998 265.80078735 47.88334656 264.8147583 C43.19249987 254.18652144 38.5632102 243.53170798 33.9375 232.875 C32.2645121 229.02205325 30.59129112 225.16920776 28.91796875 221.31640625 C28.50833389 220.37310455 28.09869904 219.42980286 27.676651 218.45791626 C24.87086807 211.99882399 22.05703824 205.54328372 19.23828125 199.08984375 C18.85635117 198.21511414 18.47442108 197.34038452 18.08091736 196.43914795 C15.90369763 191.45273307 15.90369763 191.45273307 13.72384644 186.46746826 C8.71465893 175.02013862 3.82451304 163.52637707 -1 152 C-1.33 152 -1.66 152 -2 152 Z " fill="#101111" transform="translate(1026,1108)"/>
<path d="M0 0 C39.73459233 -0.75148165 78.84713659 11.92798346 114.7421875 28.125 C116.43886957 29.82168207 115.86187743 31.93632018 115.86660767 34.19940186 C115.86301239 34.92516418 115.85941711 35.65092651 115.85571289 36.39868164 C115.85585892 37.15960617 115.85600494 37.9205307 115.8561554 38.70451355 C115.85545612 41.23142298 115.84766305 43.75825962 115.83984375 46.28515625 C115.83797962 48.0325059 115.8365557 49.77985607 115.83555603 51.52720642 C115.83173043 56.13531934 115.82189979 60.74340095 115.81085205 65.35150146 C115.80063884 70.05008521 115.7960586 74.74867399 115.79101562 79.44726562 C115.78027755 88.67319087 115.76320063 97.89909284 115.7421875 107.125 C112.51079046 105.86584625 109.70359245 104.5880096 106.84375 102.62109375 C106.12501709 102.1322168 105.40628418 101.64333984 104.66577148 101.13964844 C103.52797241 100.35895996 103.52797241 100.35895996 102.3671875 99.5625 C63.95999215 73.65988256 20.64812447 58.95539088 -26.1328125 67.75 C-29.53403743 68.45141127 -32.8960188 69.25509119 -36.2578125 70.125 C-37.5277002 70.44645996 -37.5277002 70.44645996 -38.82324219 70.77441406 C-51.20394376 73.99011992 -62.76546054 78.54408415 -74.2578125 84.125 C-75.21349121 84.57649414 -75.21349121 84.57649414 -76.18847656 85.03710938 C-107.30353255 99.85068831 -132.34365612 125.71671562 -146.2578125 157.125 C-146.53318848 157.74052734 -146.80856445 158.35605469 -147.09228516 158.99023438 C-166.76444204 203.62314487 -166.02456279 255.5348968 -148.84936523 300.76513672 C-143.2111659 314.90070929 -135.3979082 327.77308267 -125.2578125 339.125 C-124.49339844 339.99769531 -123.72898437 340.87039063 -122.94140625 341.76953125 C-120.7431385 344.25048656 -118.51198973 346.69484611 -116.2578125 349.125 C-115.43410156 350.02992188 -115.43410156 350.02992188 -114.59375 350.953125 C-88.95209335 377.98423102 -46.45575379 395.70213869 -9.49829102 397.28613281 C-5.27209249 397.33209008 -1.04676535 397.37165373 3.1796875 397.375 C4.32460159 397.37601212 4.32460159 397.37601212 5.49264526 397.37704468 C16.54366719 397.36150093 27.00478179 396.97064293 37.7421875 394.125 C38.40283203 393.96402832 39.06347656 393.80305664 39.74414062 393.63720703 C64.01141094 387.69594918 85.73161157 374.89234673 106.13330078 360.83276367 C107.19460205 360.10536987 107.19460205 360.10536987 108.27734375 359.36328125 C108.9000415 358.93055908 109.52273926 358.49783691 110.16430664 358.05200195 C111.7421875 357.125 111.7421875 357.125 113.7421875 357.125 C113.7421875 382.205 113.7421875 407.285 113.7421875 433.125 C87.44526327 446.27346212 61.96987571 455.983651 32.7421875 460.125 C32.02345459 460.228125 31.30472168 460.33125 30.56420898 460.4375 C21.61358684 461.52254133 12.55680126 461.3688888 3.5546875 461.375 C2.66235413 461.37567474 1.77002075 461.37634949 0.85064697 461.37704468 C-13.05943662 461.3603532 -26.56777905 460.77919016 -40.2578125 458.125 C-41.12825195 457.96402832 -41.99869141 457.80305664 -42.89550781 457.63720703 C-79.50118273 450.70118454 -113.52407144 435.43921741 -143.2578125 413.125 C-144.12148438 412.48820312 -144.98515625 411.85140625 -145.875 411.1953125 C-161.81803392 398.82828619 -175.70375947 383.60573713 -187.2578125 367.125 C-187.7027002 366.50351074 -188.14758789 365.88202148 -188.60595703 365.24169922 C-225.44569483 313.59477243 -234.68807097 247.33453811 -224.5703125 185.75 C-217.51562144 145.83672865 -200.19061593 108.42195185 -173.2578125 78.125 C-172.38898438 77.13371094 -171.52015625 76.14242188 -170.625 75.12109375 C-165.79406531 69.69183229 -160.86923578 64.73341526 -155.2578125 60.125 C-154.10523807 59.14870977 -152.95291889 58.17211815 -151.80078125 57.1953125 C-109.19297323 21.43710057 -55.3560444 2.12397293 0 0 Z " fill="#101111" transform="translate(643.2578125,1124.875)"/>
</svg>
